<svg width="52" height="52" viewBox="0 0 52 52" fill="none" xmlns="http://www.w3.org/2000/svg">
<g clip-path="url(#clip0_40062_718)">
<path d="M9.53523 16.4695H6.06795C5.58925 16.4695 5.20117 16.8576 5.20117 17.3363C5.20117 17.815 5.58925 18.203 6.06795 18.203H9.53523C10.0139 18.203 10.402 17.815 10.402 17.3363C10.402 16.8576 10.0139 16.4695 9.53523 16.4695ZM19.9369 16.4695H16.4696C15.9909 16.4695 15.6028 16.8576 15.6028 17.3363C15.6028 17.815 15.9909 18.203 16.4696 18.203H19.9369C20.4156 18.203 20.8037 17.815 20.8037 17.3363C20.8037 16.8576 20.4157 16.4695 19.9369 16.4695ZM26.8715 18.203H30.3388C30.8175 18.203 31.2055 17.815 31.2055 17.3363C31.2055 16.8576 30.8175 16.4695 30.3388 16.4695H26.8715C26.3928 16.4695 26.0047 16.8576 26.0047 17.3363C26.0047 17.815 26.3927 18.203 26.8715 18.203ZM37.2732 18.203H40.7404C41.2191 18.203 41.6072 17.815 41.6072 17.3363C41.6072 16.8576 41.2191 16.4695 40.7404 16.4695H37.2732C36.7945 16.4695 36.4064 16.8576 36.4064 17.3363C36.4064 17.815 36.7945 18.203 37.2732 18.203ZM9.53523 23.404H6.06795C5.58925 23.404 5.20117 23.792 5.20117 24.2707C5.20117 24.7494 5.58925 25.1375 6.06795 25.1375H9.53523C10.0139 25.1375 10.402 24.7494 10.402 24.2707C10.402 23.792 10.0139 23.404 9.53523 23.404ZM19.9369 23.404H16.4696C15.9909 23.404 15.6028 23.792 15.6028 24.2707C15.6028 24.7494 15.9909 25.1375 16.4696 25.1375H19.9369C20.4156 25.1375 20.8037 24.7494 20.8037 24.2707C20.8037 23.792 20.4157 23.404 19.9369 23.404ZM9.53523 30.3384H6.06795C5.58925 30.3384 5.20117 30.7265 5.20117 31.2052C5.20117 31.6839 5.58925 32.072 6.06795 32.072H9.53523C10.0139 32.072 10.402 31.6839 10.402 31.2052C10.402 30.7265 10.0139 30.3384 9.53523 30.3384ZM19.9369 30.3384H16.4696C15.9909 30.3384 15.6028 30.7265 15.6028 31.2052C15.6028 31.6839 15.9909 32.072 16.4696 32.072H19.9369C20.4156 32.072 20.8037 31.6839 20.8037 31.2052C20.8038 30.7265 20.4157 30.3384 19.9369 30.3384ZM9.53523 37.2729H6.06795C5.58925 37.2729 5.20117 37.661 5.20117 38.1397C5.20117 38.6184 5.58925 39.0065 6.06795 39.0065H9.53523C10.0139 39.0065 10.402 38.6184 10.402 38.1397C10.402 37.661 10.0139 37.2729 9.53523 37.2729ZM19.9369 37.2729H16.4696C15.9909 37.2729 15.6028 37.661 15.6028 38.1397C15.6028 38.6184 15.9909 39.0065 16.4696 39.0065H19.9369C20.4156 39.0065 20.8037 38.6184 20.8037 38.1397C20.8037 37.661 20.4157 37.2729 19.9369 37.2729Z" fill="#2465B1"/>
<path d="M46.8079 26.0581V6.0677C46.8079 4.63152 45.6437 3.46728 44.2075 3.46728H41.607V2.60042C41.607 1.16423 40.4427 0 39.0065 0C37.5704 0 36.4061 1.16423 36.4061 2.60042V3.4672H31.2053V2.60042C31.2053 1.16423 30.041 0 28.6048 0C27.1686 0 26.0044 1.16423 26.0044 2.60042V3.4672H20.8035V2.60042C20.8035 1.16423 19.6393 0 18.2031 0C16.7669 0 15.6027 1.16423 15.6027 2.60042V3.4672H10.4018V2.60042C10.4018 1.16423 9.23753 0 7.80134 0C6.36516 0 5.20092 1.16423 5.20092 2.60042V3.4672H2.60042C1.16423 3.46728 0 4.63152 0 6.0677V42.4737C0 43.9099 1.16423 45.0742 2.60042 45.0742H24.7908C27.8646 49.9977 33.5444 52.6556 39.294 51.8609C45.0435 51.0661 49.7895 46.9671 51.4123 41.3943C53.0351 35.8216 51.2319 29.8154 46.8079 26.0581ZM38.1398 2.60042C38.1398 2.12172 38.5278 1.73364 39.0065 1.73364C39.4852 1.73364 39.8733 2.12172 39.8733 2.60042V6.0677C39.8733 6.5464 39.4852 6.93448 39.0065 6.93448C38.5278 6.93448 38.1398 6.5464 38.1398 6.0677V2.60042ZM27.738 2.60042C27.738 2.12172 28.1261 1.73364 28.6048 1.73364C29.0835 1.73364 29.4716 2.12172 29.4716 2.60042V6.0677C29.4716 6.5464 29.0836 6.93448 28.6049 6.93448C28.1262 6.93448 27.7381 6.5464 27.7381 6.0677V2.60042H27.738ZM17.3362 2.60042C17.3362 2.12172 17.7243 1.73364 18.203 1.73364C18.6817 1.73364 19.0698 2.12172 19.0698 2.60042V6.0677C19.0698 6.5464 18.6817 6.93448 18.203 6.93448C17.7243 6.93448 17.3362 6.5464 17.3362 6.0677V2.60042ZM6.93448 2.60042C6.93448 2.12172 7.32256 1.73364 7.80126 1.73364C8.27996 1.73364 8.66804 2.12172 8.66804 2.60042V6.0677C8.66804 6.5464 8.27996 6.93448 7.80126 6.93448C7.32256 6.93448 6.93448 6.5464 6.93448 6.0677V2.60042ZM2.60042 5.20084H5.20084V6.06762C5.20084 7.5038 6.36507 8.66804 7.80126 8.66804C9.23744 8.66804 10.4017 7.5038 10.4017 6.06762V5.20084H15.6025V6.06762C15.6025 7.5038 16.7667 8.66804 18.2029 8.66804C19.6391 8.66804 20.8034 7.5038 20.8034 6.06762V5.20084H26.0042V6.06762C26.0042 7.5038 27.1684 8.66804 28.6046 8.66804C30.0408 8.66804 31.205 7.5038 31.205 6.06762V5.20084H36.4059V6.06762C36.4059 7.5038 37.5701 8.66804 39.0063 8.66804C40.4425 8.66804 41.6067 7.5038 41.6067 6.06762V5.20084H44.2071C44.6858 5.20084 45.0739 5.58892 45.0739 6.06762V10.4017H1.73364V6.0677C1.73364 5.58892 2.12172 5.20084 2.60042 5.20084ZM2.60042 43.3406C2.12172 43.3406 1.73364 42.9525 1.73364 42.4738V12.1354H45.0742V24.7908C39.5735 21.3295 32.4531 21.8891 27.5606 26.1671C22.6681 30.4451 21.1635 37.4272 23.8599 43.3406H2.60042ZM37.2729 50.2751C30.092 50.2751 24.2707 44.4538 24.2707 37.2729C24.2707 30.092 30.092 24.2707 37.2729 24.2707C44.4538 24.2707 50.2751 30.092 50.2751 37.2729C50.267 44.4504 44.4505 50.267 37.2729 50.2751Z" fill="#2465B1"/>
<path d="M42.4738 34.6725H39.8734V32.072C39.8734 30.6359 38.7091 29.4716 37.2729 29.4716C35.8368 29.4716 34.6725 30.6359 34.6725 32.072V34.6725H32.0721C30.6359 34.6725 29.4717 35.8367 29.4717 37.2729C29.4717 38.7091 30.6359 39.8733 32.0721 39.8733H34.6725V42.4737C34.6725 43.9099 35.8368 45.0741 37.2729 45.0741C38.7091 45.0741 39.8734 43.9099 39.8734 42.4737V39.8733H42.4738C43.91 39.8733 45.0742 38.7091 45.0742 37.2729C45.0742 35.8367 43.91 34.6725 42.4738 34.6725ZM42.4738 38.1397H39.0065C38.5278 38.1397 38.1397 38.5277 38.1397 39.0064V42.4737C38.1397 42.9524 37.7516 43.3405 37.2729 43.3405C36.7942 43.3405 36.4062 42.9524 36.4062 42.4737V39.0064C36.4062 38.5277 36.0181 38.1397 35.5394 38.1397H32.0721C31.5934 38.1397 31.2053 37.7516 31.2053 37.2729C31.2053 36.7942 31.5934 36.4061 32.0721 36.4061H35.5394C36.0181 36.4061 36.4062 36.018 36.4062 35.5393V32.072C36.4062 31.5933 36.7942 31.2053 37.2729 31.2053C37.7516 31.2053 38.1397 31.5933 38.1397 32.072V35.5393C38.1397 36.018 38.5278 36.4061 39.0065 36.4061H42.4738C42.9525 36.4061 43.3406 36.7942 43.3406 37.2729C43.3406 37.7516 42.9525 38.1397 42.4738 38.1397Z" fill="#2465B1"/>
</g>
<defs>
<clipPath id="clip0_40062_718">
<rect width="52" height="52" fill="white"/>
</clipPath>
</defs>
</svg>
