<svg width="52" height="52" viewBox="0 0 52 52" fill="none" xmlns="http://www.w3.org/2000/svg">
<path d="M25.9819 28.8649C19.6442 28.6583 18.1243 23.2321 17.7989 21.4802C17.1888 21.3389 16.6452 20.9935 16.2579 20.5014C15.8158 19.8921 15.6107 19.1427 15.681 18.3932C15.6308 17.9894 15.6659 17.5796 15.784 17.1902C15.9021 16.8008 16.1007 16.4405 16.3668 16.1327C16.5171 15.9786 16.6898 15.8483 16.8791 15.7462C15.7012 13.8444 15.121 11.633 15.2137 9.39795C15.9473 4.15578 20.172 3.64562 21.4952 3.61611C22.1041 2.9078 22.8654 2.34639 23.722 1.97389C25.3266 1.32665 27.1002 1.22783 28.7667 1.69281C32.0427 2.548 34.2274 4.18811 35.2639 6.56816C36.7396 9.95097 35.4452 13.8447 34.7018 15.593C34.9853 15.6851 35.2466 15.8351 35.4691 16.0336C35.7719 16.341 36 16.7138 36.136 17.1232C36.272 17.5327 36.3121 17.9679 36.2533 18.3954C36.3243 19.1448 36.1194 19.8943 35.6771 20.5035C35.2894 20.9955 34.7456 21.3408 34.1354 21.4823C33.81 23.2321 32.2936 28.6583 25.9819 28.8649ZM18.0533 16.8698C17.8041 16.8582 17.5603 16.945 17.3745 17.1115C17.2459 17.2917 17.1543 17.4955 17.1049 17.7113C17.0556 17.9271 17.0495 18.1505 17.0871 18.3687C17.09 18.4155 17.0884 18.4626 17.0822 18.5092C17.044 18.9125 17.1482 19.3165 17.3766 19.6511C17.5191 19.8103 17.692 19.9394 17.885 20.0308C18.0781 20.1223 18.2875 20.1743 18.5009 20.1837C18.6616 20.2027 18.8108 20.2766 18.9233 20.3928C19.0359 20.5091 19.1049 20.6606 19.1186 20.8218C19.1418 21.0832 19.7651 27.2564 25.9833 27.4602C32.1671 27.2564 32.7932 21.0832 32.8164 20.8204C32.8305 20.6594 32.8996 20.5082 33.0121 20.3923C33.1246 20.2763 33.2736 20.2027 33.4341 20.1837C33.6475 20.1744 33.8569 20.1224 34.05 20.0309C34.2431 19.9395 34.416 19.8103 34.5584 19.6511C34.7879 19.3148 34.8921 18.9087 34.8528 18.5036C34.847 18.4584 34.8453 18.4127 34.8479 18.3672C34.8859 18.142 34.8774 17.9113 34.8229 17.6894C34.7684 17.4675 34.669 17.2591 34.531 17.0771C34.3115 16.9154 34.0384 16.844 33.7679 16.8775C33.6378 16.9006 33.5039 16.8865 33.3815 16.837C33.2591 16.7874 33.1531 16.7044 33.0757 16.5974C32.9983 16.4903 32.9526 16.3637 32.9439 16.2319C32.9352 16.1001 32.9639 15.9685 33.0265 15.8523C33.0525 15.8031 35.6265 10.9179 33.9723 7.12119C33.1158 5.15924 31.2459 3.78968 28.4133 3.05043C27.0518 2.66516 25.6014 2.73925 24.2863 3.26124C23.5381 3.58359 22.886 4.09386 22.3932 4.74254C22.3223 4.83904 22.2276 4.91561 22.1184 4.96485C22.0093 5.01408 21.8892 5.03433 21.7699 5.02362C21.5879 5.00887 17.2853 4.7306 16.6107 9.5406C15.9361 14.3506 16.416 13.3668 18.6323 15.6857C18.7289 15.7867 18.7932 15.9142 18.817 16.0519C18.8408 16.1895 18.823 16.3312 18.7659 16.4587C18.7132 16.5895 18.6204 16.7002 18.5008 16.7748C18.3812 16.8495 18.241 16.8842 18.1004 16.874L18.0533 16.8698Z" fill="white"/>
<path d="M33.6456 16.8867C33.4643 16.8868 33.2899 16.8168 33.1589 16.6914C33.0279 16.5659 32.9505 16.3947 32.9429 16.2135C32.9345 16.0315 32.7166 11.7864 29.5475 11.3782C28.0979 11.5623 26.626 11.4475 25.2225 11.0409C23.819 10.6344 22.5137 9.94465 21.387 9.01428C20.491 9.68817 18.4265 11.7365 18.8235 16.1053C18.8288 16.2841 18.7656 16.4582 18.6469 16.592C18.5283 16.7259 18.363 16.8094 18.1848 16.8257C18.0067 16.8419 17.829 16.7895 17.6881 16.6793C17.5472 16.5691 17.4537 16.4093 17.4265 16.2324C16.844 9.82309 20.9597 7.59833 21.1347 7.50698C21.265 7.43901 21.4132 7.41357 21.5587 7.43424C21.7041 7.45491 21.8395 7.52065 21.9456 7.62222C22.9472 8.52941 24.1329 9.20958 25.4216 9.61623C26.7103 10.0229 28.0717 10.1464 29.4125 9.97839C29.4769 9.96798 29.5423 9.96562 29.6072 9.97136C33.1797 10.3431 34.271 14.1812 34.3483 16.1551C34.3556 16.3411 34.2887 16.5223 34.1625 16.659C34.0363 16.7958 33.8611 16.8769 33.6751 16.8845L33.6456 16.8867ZM45.7377 50.5946H6.2613C6.07493 50.5946 5.89619 50.5206 5.76441 50.3888C5.63263 50.257 5.55859 50.0783 5.55859 49.8919V42.0582C5.56362 39.5822 6.55031 37.2094 8.30231 35.4599C10.0543 33.7104 12.4286 32.7271 14.9045 32.7256H16.2537C16.4401 32.7256 16.6188 32.7996 16.7506 32.9314C16.8824 33.0632 16.9564 33.2419 16.9564 33.4283C16.9564 33.6146 16.8824 33.7934 16.7506 33.9252C16.6188 34.0569 16.4401 34.131 16.2537 34.131H14.9045C12.8012 34.1321 10.7842 34.9672 9.29567 36.4532C7.80716 37.9392 6.96865 39.9549 6.964 42.0582V49.1892H45.035V42.0582C45.0326 39.9565 44.1966 37.9416 42.7105 36.4555C41.2244 34.9694 39.2095 34.1334 37.1078 34.131H35.6617C35.4753 34.131 35.2966 34.0569 35.1648 33.9252C35.033 33.7934 34.959 33.6146 34.959 33.4283C34.959 33.2419 35.033 33.0632 35.1648 32.9314C35.2966 32.7996 35.4753 32.7256 35.6617 32.7256H37.1078C39.5819 32.7291 41.9536 33.7135 43.7031 35.4629C45.4525 37.2124 46.4369 39.5841 46.4404 42.0582V49.8919C46.4404 50.0783 46.3664 50.257 46.2346 50.3888C46.1028 50.5206 45.9241 50.5946 45.7377 50.5946Z" fill="white"/>
<path d="M28.3475 50.5946C28.2463 50.5946 28.1464 50.5728 28.0544 50.5306C27.9625 50.4885 27.8808 50.427 27.8148 50.3503C27.7488 50.2736 27.7001 50.1837 27.6721 50.0865C27.6441 49.9893 27.6374 49.8872 27.6525 49.7872L30.4963 30.9667C30.5114 30.8671 30.5477 30.772 30.6027 30.6876C30.6578 30.6033 30.7303 30.5318 30.8154 30.478C30.9005 30.4241 30.9962 30.3892 31.096 30.3756C31.1957 30.3619 31.2973 30.3699 31.3937 30.3989L36.3014 31.8781C36.3991 31.9076 36.4892 31.958 36.5655 32.0258C36.6418 32.0937 36.7024 32.1773 36.743 32.271C36.7837 32.3646 36.8035 32.466 36.801 32.568C36.7985 32.6701 36.7738 32.7703 36.7286 32.8619L34.7779 36.7759L35.9093 38.0457C36.0095 38.1591 36.0705 38.3017 36.0832 38.4525C36.0958 38.6033 36.0595 38.7542 35.9795 38.8826L28.9448 50.2615C28.8818 50.3633 28.7939 50.4473 28.6894 50.5056C28.5848 50.5639 28.4672 50.5945 28.3475 50.5946ZM31.7654 31.9786L29.5554 46.6039L34.5116 38.5931L33.4133 37.3599C33.3198 37.2551 33.2599 37.1247 33.2412 36.9856C33.2226 36.8464 33.246 36.7049 33.3086 36.5792L35.099 32.9856L31.7654 31.9786ZM23.5698 50.5946C23.45 50.5946 23.3322 50.5641 23.2275 50.5058C23.1228 50.4475 23.0348 50.3634 22.9718 50.2615L15.9349 38.8847C15.855 38.7563 15.8186 38.6054 15.8313 38.4546C15.8439 38.3038 15.9049 38.1612 16.0052 38.0478L17.1366 36.778L15.1859 32.864C15.1407 32.7724 15.116 32.6722 15.1135 32.5701C15.111 32.4681 15.1308 32.3667 15.1714 32.2731C15.2121 32.1794 15.2727 32.0958 15.349 32.0279C15.4252 31.9601 15.5154 31.9097 15.6131 31.8802L20.5208 30.401C20.6172 30.3721 20.7186 30.3642 20.8183 30.3779C20.918 30.3916 21.0136 30.4266 21.0986 30.4804C21.1836 30.5342 21.2561 30.6057 21.3111 30.69C21.3661 30.7742 21.4023 30.8693 21.4174 30.9688L24.2627 49.7893C24.2774 49.889 24.2705 49.9906 24.2424 50.0874C24.2144 50.1842 24.1659 50.2738 24.1002 50.3502C24.0345 50.4266 23.9531 50.4879 23.8616 50.5301C23.7701 50.5723 23.6706 50.5943 23.5698 50.5946ZM17.4057 38.591L22.3619 46.6018L20.1519 31.9786L16.8182 32.9834L18.608 36.5771C18.6706 36.7027 18.6942 36.8442 18.6757 36.9834C18.6571 37.1225 18.5973 37.2529 18.504 37.3578L17.4057 38.591Z" fill="white"/>
<path d="M26.0114 37.4927C24.492 37.4916 22.974 37.3996 21.4656 37.2173C21.3721 37.2087 21.2812 37.1815 21.1984 37.1372C21.1155 37.0929 21.0424 37.0324 20.9833 36.9594C20.9243 36.8863 20.8804 36.8022 20.8544 36.7119C20.8285 36.6217 20.8208 36.5271 20.832 36.4338C20.8432 36.3406 20.873 36.2505 20.9196 36.1689C20.9661 36.0874 21.0286 36.016 21.1033 35.959C21.1779 35.902 21.2633 35.8605 21.3542 35.837C21.4452 35.8136 21.5399 35.8086 21.6329 35.8224C24.5048 36.1756 27.4091 36.1756 30.281 35.8224C30.4642 35.8026 30.6478 35.8555 30.7923 35.9697C30.9368 36.084 31.0307 36.2504 31.0537 36.4332C31.0768 36.6159 31.0271 36.8005 30.9154 36.947C30.8038 37.0935 30.639 37.1903 30.4567 37.2166C28.9822 37.4016 27.4975 37.4938 26.0114 37.4927ZM31.1931 31.7741C31.0837 31.7737 30.976 31.7478 30.8784 31.6984C30.7808 31.649 30.696 31.5774 30.631 31.4895C29.5867 30.0778 29.3977 27.2796 29.3802 26.9655C29.3694 26.7795 29.4329 26.5969 29.5568 26.4578C29.6807 26.3186 29.8547 26.2343 30.0407 26.2235C30.2262 26.2148 30.4077 26.279 30.5464 26.4025C30.6851 26.5259 30.7699 26.6988 30.7827 26.884C30.8256 27.6233 31.0856 29.7419 31.7602 30.654C31.8373 30.7584 31.884 30.8821 31.895 31.0115C31.9061 31.1408 31.8812 31.2706 31.823 31.3866C31.7647 31.5026 31.6755 31.6002 31.5652 31.6686C31.4549 31.737 31.3278 31.7735 31.198 31.7741H31.1931ZM20.725 31.7741C20.5952 31.7735 20.4681 31.737 20.3578 31.6686C20.2475 31.6002 20.1583 31.5026 20.1001 31.3866C20.0418 31.2706 20.0169 31.1408 20.028 31.0115C20.039 30.8821 20.0857 30.7584 20.1628 30.654C20.8388 29.7405 21.0981 27.6226 21.141 26.884C21.1463 26.7917 21.1698 26.7014 21.21 26.6182C21.2503 26.535 21.3066 26.4605 21.3756 26.3991C21.4446 26.3376 21.5251 26.2903 21.6124 26.26C21.6997 26.2296 21.7921 26.2167 21.8844 26.2221C21.9767 26.2274 22.067 26.2509 22.1502 26.2912C22.2334 26.3314 22.3079 26.3877 22.3694 26.4567C22.4308 26.5257 22.4781 26.6062 22.5085 26.6935C22.5388 26.7808 22.5517 26.8732 22.5464 26.9655C22.5288 27.2796 22.3356 30.0778 21.2956 31.4895C21.2296 31.5786 21.1436 31.6508 21.0444 31.7003C20.9452 31.7497 20.8358 31.775 20.725 31.7741ZM40.1624 40.7455C39.9795 40.7456 39.8038 40.6744 39.6726 40.547C39.5414 40.4196 39.465 40.246 39.4597 40.0632C39.3283 35.4872 37.5884 34.0474 37.5716 34.0333C37.4264 33.918 37.3322 33.7504 37.3094 33.5664C37.2865 33.3824 37.3367 33.1968 37.4493 33.0495C37.5611 32.9034 37.726 32.8073 37.9082 32.782C38.0904 32.7568 38.2752 32.8044 38.4225 32.9146C38.5153 32.9849 40.7112 34.6903 40.8651 40.0224C40.8704 40.2086 40.8016 40.3892 40.6738 40.5247C40.546 40.6601 40.3696 40.7393 40.1835 40.7448L40.1624 40.7455Z" fill="white"/>
<path d="M40.1658 44.8943C39.6164 44.8944 39.0793 44.7316 38.6224 44.4265C38.1655 44.1213 37.8094 43.6875 37.599 43.18C37.3887 42.6724 37.3335 42.1139 37.4406 41.575C37.5477 41.0361 37.8123 40.5411 38.2007 40.1525C38.5892 39.764 39.0841 39.4994 39.623 39.3921C40.1618 39.2849 40.7204 39.3399 41.228 39.5501C41.7356 39.7603 42.1695 40.1163 42.4747 40.5732C42.78 41.03 42.9429 41.5671 42.9429 42.1165C42.9422 42.8528 42.6494 43.5588 42.1288 44.0796C41.6081 44.6004 40.9022 44.8933 40.1658 44.8943ZM40.1658 40.7441C39.8944 40.744 39.629 40.8243 39.4032 40.975C39.1774 41.1258 39.0014 41.3401 38.8974 41.5908C38.7935 41.8416 38.7662 42.1175 38.819 42.3838C38.8719 42.65 39.0026 42.8946 39.1945 43.0866C39.3864 43.2786 39.6309 43.4094 39.8971 43.4624C40.1634 43.5154 40.4394 43.4883 40.6902 43.3845C40.941 43.2806 41.1554 43.1047 41.3062 42.879C41.457 42.6533 41.5375 42.3879 41.5375 42.1165C41.5371 41.7527 41.3925 41.404 41.1354 41.1467C40.8783 40.8895 40.5296 40.7447 40.1658 40.7441ZM11.3002 40.7455C11.1222 40.746 10.9506 40.6788 10.8202 40.5576C10.6897 40.4365 10.6102 40.2703 10.5975 40.0927C10.2145 34.6995 13.1863 32.9757 13.3128 32.9048C13.4751 32.8132 13.6672 32.7898 13.8467 32.8398C14.0263 32.8898 14.1786 33.0091 14.2702 33.1714C14.3618 33.3338 14.3852 33.5258 14.3351 33.7054C14.2851 33.8849 14.1658 34.0373 14.0035 34.1289C13.8967 34.1921 11.6846 35.5575 11.9987 39.9936C12.0118 40.1795 11.9506 40.363 11.8284 40.5038C11.7063 40.6445 11.5332 40.731 11.3473 40.7441L11.3002 40.7455Z" fill="white"/>
<path d="M9.87852 46.372C9.76978 46.3725 9.66242 46.3478 9.56487 46.2997C9.46732 46.2517 9.38225 46.1817 9.31636 46.0952C8.97334 45.6447 8.72065 45.1322 8.5722 44.5858C8.24599 43.5215 8.35301 42.3715 8.86999 41.3857C9.38698 40.3999 10.2721 39.6579 11.3331 39.3211C11.8364 39.1796 12.3627 39.1398 12.8815 39.204C13.4003 39.2682 13.9012 39.4351 14.3547 39.695C15.1496 40.1542 15.7855 40.8451 16.1772 41.6754C16.569 42.5056 16.6981 43.4357 16.5472 44.3412C16.5166 44.5251 16.4143 44.6893 16.2626 44.7977C16.111 44.906 15.9226 44.9498 15.7387 44.9192C15.5549 44.8886 15.3907 44.7863 15.2823 44.6347C15.1739 44.4831 15.1302 44.2946 15.1607 44.1107C15.2639 43.4903 15.1763 42.8531 14.9095 42.2835C14.6428 41.7138 14.2094 41.2386 13.6668 40.9205C13.3742 40.7515 13.0509 40.6426 12.7157 40.6C12.3805 40.5574 12.0402 40.582 11.7147 40.6724C11.0106 40.9079 10.4277 41.4115 10.0925 42.074C9.75729 42.7365 9.69682 43.5044 9.9242 44.2112C10.0259 44.5853 10.1991 44.9361 10.4344 45.2442C10.5135 45.3484 10.562 45.4725 10.5744 45.6027C10.5868 45.7329 10.5626 45.864 10.5045 45.9812C10.4465 46.0985 10.3569 46.1971 10.2458 46.2662C10.1347 46.3352 10.0065 46.3719 9.87571 46.372H9.87852Z" fill="white"/>
<path d="M15.8634 44.9301C15.836 44.9301 15.8079 44.9301 15.7798 44.9259L14.9878 44.8325C14.8961 44.8216 14.8075 44.7927 14.727 44.7476C14.6464 44.7024 14.5756 44.6419 14.5185 44.5693C14.4613 44.4968 14.419 44.4137 14.394 44.3249C14.369 44.236 14.3617 44.1431 14.3726 44.0514C14.3835 43.9597 14.4123 43.8711 14.4575 43.7905C14.5026 43.71 14.5632 43.6392 14.6357 43.582C14.7822 43.4667 14.9685 43.4142 15.1537 43.4362L15.9456 43.5303C16.1235 43.5515 16.2865 43.6398 16.4015 43.7771C16.5164 43.9145 16.5746 44.0905 16.5641 44.2693C16.5536 44.4481 16.4752 44.6162 16.345 44.7391C16.2148 44.8621 16.0425 44.9299 15.8634 44.9301ZM9.87847 46.3784C9.71348 46.3786 9.55367 46.3208 9.42703 46.215C9.3004 46.1092 9.21503 45.9623 9.18587 45.7999C9.15671 45.6375 9.18562 45.47 9.26754 45.3268C9.34946 45.1836 9.47917 45.0738 9.63393 45.0166L10.4772 44.7053C10.5637 44.673 10.6557 44.658 10.748 44.6613C10.8403 44.6646 10.931 44.686 11.015 44.7243C11.0991 44.7626 11.1747 44.8172 11.2376 44.8847C11.3006 44.9523 11.3496 45.0316 11.3819 45.1181C11.4142 45.2046 11.4291 45.2966 11.4259 45.3889C11.4226 45.4812 11.4012 45.572 11.3629 45.656C11.3245 45.74 11.27 45.8156 11.2024 45.8786C11.1349 45.9415 11.0556 45.9905 10.9691 46.0228L10.1258 46.3348C10.0467 46.3641 9.96287 46.3789 9.87847 46.3784Z" fill="white"/>
</svg>
