<svg width="64" height="48" viewBox="0 0 64 48" fill="none" xmlns="http://www.w3.org/2000/svg">
<path d="M24 19.5V6.75C24 5.75544 23.6049 4.80161 22.9016 4.09835C22.1984 3.39509 21.2445 3 20.25 3C19.2554 3 18.3016 3.39509 17.5983 4.09835C16.8951 4.80161 16.5 5.75544 16.5 6.75V29.4874L12.3886 22.3662C12.1426 21.9393 11.8148 21.5651 11.4241 21.2649C11.0334 20.9647 10.5874 20.7444 10.1115 20.6167C9.63561 20.489 9.13923 20.4563 8.65071 20.5205C8.16219 20.5847 7.69111 20.7445 7.2644 20.9909C6.8377 21.2373 6.46372 21.5653 6.16385 21.9563C5.86398 22.3472 5.6441 22.7935 5.51678 23.2694C5.38945 23.7454 5.35717 24.2418 5.42179 24.7303C5.48641 25.2188 5.64666 25.6897 5.89338 26.1162C12 39 15.7157 43.5 24 43.5C25.9698 43.5 27.9203 43.112 29.7402 42.3582C31.5601 41.6044 33.2137 40.4995 34.6066 39.1066C35.9995 37.7137 37.1044 36.0601 37.8582 34.2403C38.612 32.4204 39 30.4698 39 28.5V21C39 20.0054 38.6049 19.0516 37.9016 18.3483C37.1984 17.6451 36.2445 17.25 35.25 17.25C34.2554 17.25 33.3016 17.6451 32.5983 18.3483C31.8951 19.0516 31.5 20.0054 31.5 21" stroke="#BDBDBD" stroke-width="2" stroke-linecap="round" stroke-linejoin="round"/>
<path d="M31.5 21V18.75C31.5 17.7554 31.1049 16.8016 30.4017 16.0983C29.6984 15.3951 28.7446 15 27.75 15C26.7554 15 25.8016 15.3951 25.0983 16.0983C24.3951 16.8016 24 17.7554 24 18.75V19.5" stroke="#BDBDBD" stroke-width="2" stroke-linecap="round" stroke-linejoin="round"/>
</svg>
