<svg width="20" height="21" viewBox="0 0 20 21" fill="none" xmlns="http://www.w3.org/2000/svg">
<path d="M9.6875 0C15.1562 0 19.375 4.02344 19.375 9.41406C19.375 16.25 12.8516 20.0781 6.875 18.4375C6.52344 18.3594 6.48438 18.4375 4.45312 19.3359C4.17969 19.4141 3.90625 19.4141 3.71094 19.2578C3.47656 19.1406 3.35938 18.9062 3.35938 18.6328C3.28125 16.8359 3.35938 16.6797 3.04688 16.3672C1.13281 14.6875 0 12.2266 0 9.41406C0 4.02344 4.21875 0 9.6875 0ZM15.5078 7.26562C15.7812 6.83594 15.2734 6.32812 14.8438 6.64062L11.7969 8.94531C11.5625 9.10156 11.2891 9.10156 11.0938 8.94531L8.82812 7.26562C8.47656 7.03125 8.08594 6.91406 7.69531 6.99219C7.26562 7.07031 6.91406 7.30469 6.71875 7.65625L3.86719 12.1484C3.59375 12.5781 4.10156 13.0859 4.53125 12.7734L7.57812 10.4688C7.8125 10.3125 8.08594 10.3125 8.28125 10.4688L10.5469 12.1484C10.8984 12.3828 11.2891 12.5 11.7188 12.4219C12.1094 12.3438 12.4609 12.1094 12.6562 11.7578L15.5078 7.26562Z" fill="white"/>
</svg>
