<svg width="44" height="60" viewBox="0 0 44 60" fill="none" xmlns="http://www.w3.org/2000/svg">
<path d="M42.7242 9.95916C42.6742 9.84606 42.6241 9.73924 42.5678 9.63242C42.5678 9.63242 42.5678 9.62614 42.5616 9.62614C42.0985 8.70248 41.5103 7.90449 40.8909 7.35155C40.6656 7.15049 40.4404 6.98712 40.2151 6.86145C40.1901 6.84888 40.1713 6.83632 40.1463 6.82375C39.8146 6.64782 39.4893 6.55985 39.1764 6.56613C39.0638 6.54728 38.9512 6.541 38.8323 6.53472C37.512 6.45931 36.4358 7.11279 35.4909 7.69714C34.3396 8.40088 33.57 8.82187 32.6376 8.45743C32.3811 8.11813 31.6928 7.32014 30.6917 6.8049L31.6177 3.50613C31.818 2.7961 31.43 2.06723 30.7292 1.83475L28.4266 1.07446C27.8384 0.879673 27.1876 1.11216 26.856 1.63996L26.2991 2.51964L26.1489 1.21269C26.0801 0.52152 25.4982 0 24.8036 0H22.4384C21.7439 0 21.162 0.52152 21.0869 1.21269L20.8428 3.37418L20.0231 1.61483C19.7228 0.967641 18.9594 0.659755 18.2962 0.923657L16.1249 1.77191C15.5055 2.01068 15.1551 2.66415 15.2865 3.31762L15.5993 4.8759C15.2176 5.01414 14.7233 5.26547 14.2227 5.70531C13.9724 5.92523 13.7534 6.164 13.5595 6.42161V5.71788C13.5595 4.61828 12.1579 3.79516 10.2995 3.79516C9.05429 3.79516 8.02185 4.16588 7.46496 4.73767C6.98316 4.17216 6.51387 3.81401 6.37621 3.71348C5.42512 2.8338 3.66059 3.17311 2.32781 4.51775C0.963741 5.86868 0.625852 7.65944 1.5394 8.60823C1.55192 8.62708 3.07241 10.3236 3.22259 13.4087C2.90347 13.9742 1.85852 15.9032 1.03883 18.3663C-0.23764 22.2055 -0.337755 25.3849 0.738482 27.8228C0.550766 28.8847 -0.143782 33.7166 1.58946 39.6921C2.71575 43.5878 4.64297 47.1505 7.32105 50.2796C7.81537 50.8577 8.32846 51.4106 8.86032 51.951C9.40469 52.5039 9.9741 53.0317 10.556 53.5407C11.1504 54.0622 11.7699 54.5586 12.3956 55.0424C13.0401 55.5325 13.7034 56.0038 14.3792 56.4499C15.0737 56.9086 15.787 57.3484 16.5066 57.7631C17.2512 58.1904 18.0083 58.5988 18.778 58.9821C19.5789 59.3842 20.3861 59.8869 21.2934 59.9874C21.5311 60.0126 21.7626 60.0063 22.0004 59.9874C22.1819 59.9749 22.3571 59.956 22.5385 59.9309C22.7513 59.8995 22.9578 59.8618 23.1643 59.8115C23.402 59.7549 23.6398 59.6921 23.8776 59.623C24.1466 59.5413 24.4094 59.4471 24.6722 59.3402C24.9663 59.2209 25.2542 59.0952 25.542 58.957C25.8611 58.7999 26.174 58.6302 26.4806 58.4543C26.8247 58.2532 27.1563 58.0396 27.488 57.8134C27.8509 57.562 28.2076 57.2981 28.558 57.028C28.9459 56.7201 29.3151 56.4059 29.6843 56.0729C30.091 55.7084 30.4789 55.3314 30.8606 54.9419C31.2798 54.5083 31.6928 54.0685 32.087 53.6098C32.525 53.1071 32.9442 52.5919 33.3572 52.0704C33.8077 51.4923 34.2457 50.9017 34.665 50.3047C35.128 49.645 35.5723 48.9727 36.004 48.2941C36.4796 47.5463 36.9301 46.7923 37.3743 46.0258C37.7685 45.3346 38.1565 44.6434 38.5319 43.9397C38.7447 43.525 43.619 34.0559 39.4705 29.3622C40.2276 28.2249 41.404 25.1335 37.6684 19.491C38.0626 18.9067 39.2703 17.4238 42.4927 15.256C42.4927 15.256 42.499 15.256 42.499 15.2498C42.6554 15.1744 42.7993 15.0738 42.9182 14.9544C42.9182 14.9544 42.9182 14.9544 42.9245 14.9482C43.3187 14.546 43.5314 13.8926 43.5126 13.0506C43.4876 12.1269 43.2123 11.0273 42.7242 9.95916ZM13.3029 11.3729C13.4594 11.2535 13.5532 11.0713 13.5532 10.8702V10.8325C13.5532 6.40276 16.2876 5.95664 16.394 5.93779C16.5692 5.91894 16.7194 5.82469 16.8257 5.68018C16.9258 5.53566 16.9634 5.35972 16.9321 5.19007L16.5066 3.06001C16.4941 3.00346 16.5254 2.95319 16.5754 2.92806L18.7467 2.0798C18.803 2.06095 18.8656 2.08608 18.8906 2.13635L19.9293 4.35438C20.0732 4.66227 20.3423 4.88219 20.6676 4.95759C20.9742 5.03299 21.2996 4.97015 21.5624 4.78794C21.8252 4.60572 21.9942 4.32297 22.0254 4.00251L22.3258 1.33836C22.3321 1.28181 22.3821 1.23783 22.4384 1.23783H24.8036C24.86 1.23783 24.91 1.28181 24.9163 1.33836L25.2604 4.39837C25.2917 4.66227 25.4794 4.8759 25.7422 4.93874C25.9988 5.00157 26.2678 4.88847 26.4117 4.66855L27.9135 2.31228C27.9385 2.2683 27.9948 2.24945 28.0449 2.2683L30.3475 3.02859C30.4038 3.04744 30.4351 3.11027 30.4226 3.16682L29.3526 6.98712C29.265 7.30129 29.434 7.63431 29.7406 7.74741C30.4727 8.01131 31.0483 8.53283 31.3862 8.90355C29.6405 10.3424 27.8259 9.78322 25.9112 9.19259C24.4845 8.75275 23.0078 8.30034 21.6062 8.75903C18.4526 9.78951 18.6716 11.8379 18.8218 13.2014C18.9594 14.4958 18.9469 14.9607 17.7956 15.2686C15.1926 15.9598 13.4719 19.0009 12.746 20.5718C11.4007 18.9381 10.7813 17.3107 10.9064 15.7147C11.0941 13.0883 13.2779 11.3918 13.3029 11.3729ZM10.287 5.03927C11.5885 5.03927 12.3018 5.54194 12.3018 5.71159C12.3018 5.88124 11.5885 6.38391 10.287 6.38391C8.98546 6.38391 8.27214 5.88124 8.27214 5.71159C8.27214 5.54822 8.98546 5.03927 10.287 5.03927ZM2.4467 7.74112C2.07126 7.36412 2.31529 6.28338 3.19756 5.39742C3.81702 4.77537 4.53034 4.47377 5.02466 4.47377C5.2374 4.47377 5.41886 4.53032 5.53149 4.64342C5.70044 4.81307 5.74424 5.13352 5.65663 5.51681C5.54401 6.00691 5.22489 6.541 4.78063 6.98712C4.33637 7.43324 3.80451 7.75369 3.31644 7.86679C2.9285 7.95476 2.60938 7.91078 2.4467 7.74112ZM1.51437 26.2143C0.212878 21.0305 4.34888 13.9617 4.39268 13.8863C4.45525 13.7857 4.48654 13.6664 4.48028 13.547C4.41771 11.5991 3.87334 10.11 3.3665 9.12975C3.44159 9.11718 3.52293 9.10462 3.59802 9.08577C4.3176 8.91612 5.04969 8.48256 5.66289 7.87308C6.22604 7.30757 6.63901 6.63525 6.82673 5.96921C7.08953 6.36506 7.3273 6.83632 7.42116 7.38297C7.74654 9.1863 7.52128 12.0641 7.52128 12.0892C7.49625 12.4348 7.75279 12.7364 8.09068 12.7615C8.10945 12.7615 8.12197 12.7615 8.14074 12.7615C8.45986 12.7615 8.73517 12.5102 8.7602 12.1835C8.77272 12.0641 8.9792 9.36224 8.68512 7.40811C9.14815 7.55262 9.69252 7.64059 10.2807 7.64059C11.0566 7.64059 11.7449 7.49607 12.2955 7.25102V10.5812C11.626 11.1656 9.85521 12.9626 9.64247 15.6016C9.51732 17.1788 9.96784 18.7559 10.9878 20.3142C9.90527 20.0942 8.82277 20.1508 7.75279 20.4901C5.94447 21.0682 4.22999 22.4254 2.64693 24.524C2.19015 25.1398 1.80846 25.7304 1.51437 26.2143ZM38.9762 26.918C38.8823 28.005 38.4693 28.6145 38.2879 28.8407C35.1843 29.6953 29.9533 30.5247 28.5892 29.2114C28.3953 29.0229 28.1512 28.6773 28.339 27.8856C29.2963 23.858 35.0154 21.0368 36.686 20.2953C37.9062 22.1552 39.1764 24.6874 38.9762 26.918ZM36.4733 19.0198C35.8914 19.2648 34.227 20.0126 32.4374 21.2001C29.4527 23.1794 27.6694 25.3283 27.1313 27.5966C27.0437 27.9673 27.0187 28.2941 27.0375 28.5894C27.0375 28.6019 27.0375 28.6082 27.0375 28.6208V32.0327C27.0375 33.9051 26.6495 35.7147 25.8736 37.4175L25.0539 39.2271C24.6222 40.1885 23.8713 40.9928 22.939 41.4892L20.5988 42.7458C19.4037 43.3867 18.5527 44.524 18.2774 45.8561L17.7268 48.5203C17.6579 48.8533 17.8519 49.1926 18.1773 49.2743C18.2273 49.2868 18.2836 49.2931 18.3337 49.2931C18.6215 49.2931 18.8843 49.092 18.9469 48.7967L19.5038 46.1137C19.704 45.1461 20.3172 44.323 21.187 43.8517L23.5272 42.595C23.7274 42.4882 23.9151 42.3688 24.0966 42.2432L23.1142 52.416C23.0829 52.7615 23.3332 53.0694 23.6773 53.1008C23.6961 53.1008 23.7211 53.1008 23.7399 53.1008C24.059 53.1008 24.3281 52.8558 24.3594 52.5353L24.8224 47.7286L28.8208 50.1979C28.9209 50.2608 29.0335 50.2922 29.1461 50.2922C29.3526 50.2922 29.5591 50.1854 29.678 49.9969C29.8595 49.7015 29.7656 49.3183 29.4715 49.136L24.9538 46.3462L25.4732 40.9299C25.7547 40.5655 25.9925 40.1696 26.1802 39.7487L26.9999 37.939C27.3253 37.2227 27.5881 36.4813 27.7883 35.7336L30.8356 37.0468L29.7468 41.5897C29.6655 41.929 29.872 42.262 30.2099 42.3437C30.2599 42.3563 30.31 42.3625 30.3538 42.3625C30.6353 42.3625 30.8919 42.1678 30.9607 41.885L31.9056 37.9328L34.1957 40.3016C34.3208 40.4273 34.4835 40.4901 34.6462 40.4901C34.8026 40.4901 34.9591 40.4335 35.078 40.3142C35.3282 40.0754 35.3282 39.6733 35.0905 39.4282L32.0119 36.2425C32.0057 36.2363 32.0057 36.2363 31.9994 36.23C31.9932 36.2237 31.9806 36.2111 31.9744 36.2048C31.9681 36.1986 31.9619 36.1923 31.9556 36.1923C31.9431 36.186 31.9368 36.1797 31.9243 36.1671C31.9181 36.1609 31.9118 36.1609 31.9056 36.1546C31.893 36.1483 31.8868 36.142 31.8743 36.1357C31.868 36.1294 31.8618 36.1294 31.8492 36.1232C31.8367 36.1169 31.8305 36.1106 31.818 36.1106C31.818 36.1106 31.8117 36.1106 31.8117 36.1043L28.0636 34.4895C28.2013 33.6852 28.2764 32.8684 28.2764 32.039V30.5309C29.0147 30.9519 30.0659 31.1656 31.4488 31.1656C32.2747 31.1656 33.2196 31.0902 34.2833 30.9394C36.0979 30.688 37.7373 30.2859 38.4318 30.1037C42.1611 34.1188 37.4557 43.2674 37.4056 43.3553C32.7628 52.0641 28.5517 55.7838 25.8298 57.3673C25.7735 57.3987 25.7235 57.4301 25.6671 57.4615C23.5147 58.6742 20.8866 58.6931 18.6966 57.5432C14.473 55.3377 10.9815 52.6422 8.28466 49.5005C5.73798 46.5033 3.89211 43.1103 2.80961 39.3968C1.07637 33.459 1.87729 28.5768 1.99618 27.9359C2.29652 27.3327 4.6242 22.8024 8.147 21.6777C9.58615 21.219 11.0691 21.4012 12.5458 22.218C15.6056 25.4288 17.2324 27.6343 17.977 29.5822C18.7154 31.5049 18.6779 33.3459 17.8582 35.9158C17.758 36.23 17.902 36.5818 18.2086 36.7075C18.2899 36.7389 18.3713 36.7578 18.4463 36.7578C18.7091 36.7578 18.9532 36.5881 19.0408 36.3242C19.9543 33.4778 19.9856 31.3289 19.1409 29.136C18.34 27.0437 16.7381 24.8382 13.6596 21.5771C14.1289 20.465 15.7307 17.1034 18.1084 16.4687C20.361 15.8718 20.1858 14.2444 20.0607 13.0569C19.9168 11.7185 19.8041 10.6566 21.9942 9.94031C23.0266 9.601 24.253 9.98429 25.5482 10.3801C27.5756 11.0022 30.0722 11.7751 32.3936 9.68269C33.8641 10.1602 35.078 9.41879 36.1604 8.75275C36.6673 8.44486 37.1553 8.14326 37.6559 7.96104C37.5933 8.23751 37.5621 8.5454 37.5683 8.8847C37.5808 9.80836 37.8624 10.9079 38.3505 11.9761C38.8385 13.0443 39.4893 13.968 40.1776 14.5837C40.3465 14.7345 40.5154 14.8665 40.6844 14.9733C37.8061 17.0594 36.7924 18.4606 36.4733 19.0198ZM42.0485 14.0434C42.0422 14.0496 42.0359 14.0559 42.0297 14.0622C42.0109 14.0811 41.9921 14.0936 41.9671 14.1062C41.5917 14.2821 40.3653 13.4024 39.4705 11.4609C38.582 9.51932 38.7196 8.01131 39.0951 7.83537C39.1201 7.82281 39.1514 7.81652 39.1889 7.81652C39.1952 7.81652 39.2077 7.81652 39.214 7.81652C39.3016 7.81652 39.4142 7.85423 39.5456 7.91706C39.5769 7.93591 39.6082 7.95476 39.6394 7.96733C40.1463 8.26893 40.8596 9.00408 41.454 10.1916C41.4978 10.2859 41.5479 10.3801 41.5917 10.4744C42.4114 12.284 42.3551 13.7041 42.0485 14.0434Z" fill="#2465B1"/>
</svg>
