<svg width="39" height="52" viewBox="0 0 39 52" fill="none" xmlns="http://www.w3.org/2000/svg">
<g clip-path="url(#clip0_40062_956)">
<path d="M35.0812 5.48013H29.1463C29.0649 4.83425 28.7523 4.24036 28.267 3.80962C27.7817 3.37889 27.157 3.14084 26.5098 3.14004H25.0787C24.8586 3.14004 24.6475 3.05209 24.4919 2.89552C24.3362 2.73896 24.2488 2.52662 24.2488 2.3052C24.2481 1.69384 24.0064 1.1077 23.5767 0.6754C23.1469 0.243098 22.5643 -6.2798e-05 21.9566 -0.000732422H17.0422C16.4344 -6.2798e-05 15.8518 0.243098 15.4221 0.6754C14.9923 1.1077 14.7506 1.69384 14.75 2.3052C14.75 2.41483 14.7285 2.52339 14.6868 2.62468C14.6451 2.72597 14.5839 2.818 14.5069 2.89552C14.4298 2.97305 14.3383 3.03454 14.2377 3.07649C14.137 3.11845 14.0291 3.14004 13.9201 3.14004H12.4917C11.8443 3.14084 11.2194 3.37885 10.7338 3.80954C10.2483 4.24023 9.93528 4.83412 9.85342 5.48013H3.91853C1.75783 5.48013 0 7.24949 0 9.42438V48.0548C0 50.2304 1.75783 51.999 3.91853 51.999H35.0812C37.2419 51.999 38.9998 50.2297 38.9998 48.0548V9.42438C38.9998 7.24949 37.2419 5.48013 35.0812 5.48013ZM12.4917 4.54409H13.9208C14.5106 4.54343 15.0759 4.30746 15.4929 3.88797C15.9099 3.46848 16.1445 2.89972 16.1452 2.30647C16.1454 2.06722 16.24 1.83785 16.4082 1.66868C16.5763 1.49951 16.8044 1.40435 17.0422 1.40408H21.9576C22.1954 1.40435 22.4234 1.49951 22.5916 1.66868C22.7597 1.83785 22.8543 2.06722 22.8546 2.30647C22.8553 2.89972 23.0898 3.46848 23.5068 3.88797C23.9238 4.30746 24.4892 4.54343 25.0789 4.54409H26.5101C26.8444 4.5445 27.1648 4.67817 27.4013 4.91583C27.6378 5.1535 27.771 5.47577 27.7718 5.81204V8.68845C27.7714 9.02494 27.6383 9.34754 27.4018 9.58548C27.1653 9.82341 26.8446 9.95726 26.5101 9.95766H12.4897C12.1552 9.95726 11.8345 9.82341 11.598 9.58548C11.3615 9.34754 11.2284 9.02494 11.228 8.68845V5.81508C11.2283 5.478 11.3616 5.15483 11.5985 4.91646C11.8354 4.67809 12.1566 4.54399 12.4917 4.54359V4.54409ZM37.6046 48.057C37.6041 48.7303 37.3382 49.376 36.8651 49.8523C36.3921 50.3286 35.7505 50.5967 35.0812 50.5978H3.91853C3.24924 50.5967 2.6077 50.3286 2.13464 49.8523C1.66159 49.376 1.39567 48.7303 1.3952 48.057V9.42665C1.39507 8.75296 1.66073 8.10676 2.13385 7.62996C2.60696 7.15316 3.24885 6.88475 3.91853 6.88367H9.83255V8.68845C9.83335 9.39711 10.1136 10.0765 10.6117 10.5776C11.1098 11.0786 11.7852 11.3605 12.4897 11.3612H26.5101C27.2145 11.3605 27.8899 11.0786 28.3881 10.5776C28.8862 10.0765 29.1664 9.39711 29.1672 8.68845V6.88367H35.0812C35.7505 6.88475 36.3921 7.15284 36.8651 7.62915C37.3382 8.10546 37.6041 8.75108 37.6046 9.42438V48.057ZM16.5101 28.5405V32.2166C16.5107 32.7481 16.7208 33.2577 17.0944 33.6336C17.4681 34.0094 17.9746 34.2208 18.503 34.2214H20.4967C21.0251 34.2208 21.5317 34.0094 21.9053 33.6336C22.2789 33.2577 22.4891 32.7481 22.4897 32.2166V28.5392C22.4899 28.3798 22.553 28.227 22.665 28.1143C22.7771 28.0016 22.929 27.9383 23.0875 27.9381H26.7425C27.2708 27.9375 27.7774 27.7261 28.151 27.3502C28.5247 26.9744 28.7348 26.4648 28.7354 25.9332V23.9273C28.7348 23.3958 28.5247 22.8862 28.151 22.5103C27.7774 22.1345 27.2708 21.9231 26.7425 21.9225H23.0875C22.929 21.9223 22.7771 21.859 22.665 21.7463C22.553 21.6336 22.4899 21.4808 22.4897 21.3214V17.6453C22.4891 17.1137 22.2789 16.6041 21.9053 16.2283C21.5317 15.8524 21.0251 15.641 20.4967 15.6404H18.503C17.9746 15.641 17.4681 15.8524 17.0944 16.2283C16.7208 16.6041 16.5107 17.1137 16.5101 17.6453V21.3214C16.5099 21.4808 16.4468 21.6336 16.3347 21.7463C16.2227 21.859 16.0707 21.9223 15.9123 21.9225H12.2573C11.7289 21.9231 11.2223 22.1345 10.8487 22.5103C10.4751 22.8862 10.2649 23.3958 10.2643 23.9273V25.9332C10.2649 26.4648 10.4751 26.9744 10.8487 27.3502C11.2223 27.7261 11.7289 27.9375 12.2573 27.9381H15.9115C16.0701 27.9381 16.2222 28.0013 16.3345 28.114C16.4467 28.2268 16.5099 28.3797 16.5101 28.5392V28.5405ZM11.6605 25.9348V23.9289C11.6603 23.7694 11.7231 23.6163 11.835 23.5033C11.9469 23.3904 12.0988 23.3267 12.2573 23.3263H15.9115C16.4399 23.3257 16.9465 23.1142 17.3201 22.7384C17.6937 22.3625 17.9039 21.8529 17.9045 21.3214V17.6453C17.9048 17.4858 17.968 17.3329 18.0802 17.2203C18.1924 17.1076 18.3445 17.0444 18.503 17.0445H20.4967C20.6552 17.0446 20.8072 17.108 20.9193 17.2207C21.0313 17.3335 21.0944 17.4864 21.0945 17.6458V21.3219C21.0951 21.8534 21.3053 22.363 21.6789 22.7389C22.0525 23.1147 22.5591 23.3262 23.0875 23.3268H26.7425C26.9009 23.327 27.0527 23.3904 27.1647 23.503C27.2767 23.6157 27.3398 23.7685 27.34 23.9278V25.9337C27.3398 26.0931 27.2767 26.2459 27.1647 26.3586C27.0527 26.4712 26.9009 26.5346 26.7425 26.5348H23.0875C22.5591 26.5354 22.0525 26.7469 21.6789 27.1227C21.3053 27.4986 21.0951 28.0082 21.0945 28.5397V32.2158C21.0944 32.3752 21.0313 32.5281 20.9193 32.6409C20.8072 32.7536 20.6552 32.817 20.4967 32.8171H18.503C18.3445 32.817 18.1926 32.7536 18.0805 32.6409C17.9684 32.5281 17.9054 32.3752 17.9053 32.2158V28.5392C17.9047 28.0077 17.6945 27.4981 17.3209 27.1222C16.9472 26.7464 16.4407 26.5349 15.9123 26.5343H12.2573C12.099 26.5339 11.9474 26.4704 11.8355 26.3578C11.7237 26.2451 11.6607 26.0925 11.6605 25.9332V25.9348ZM10.7849 39.2244C10.7849 39.3166 10.7669 39.4078 10.7318 39.493C10.6967 39.5781 10.6454 39.6555 10.5806 39.7207C10.5158 39.7858 10.4389 39.8375 10.3543 39.8728C10.2696 39.908 10.1789 39.9262 10.0873 39.9262H6.4552C6.27244 39.9227 6.09834 39.8472 5.97033 39.716C5.84231 39.5847 5.77059 39.4082 5.77059 39.2243C5.77059 39.0404 5.84231 38.8639 5.97033 38.7326C6.09834 38.6014 6.27244 38.5259 6.4552 38.5224H10.0873C10.2721 38.5224 10.4493 38.5962 10.5801 38.7275C10.7109 38.8588 10.7846 39.037 10.7849 39.2229V39.2244ZM33.2419 39.2244C33.2419 39.3166 33.2239 39.4078 33.1888 39.493C33.1537 39.5781 33.1024 39.6555 33.0376 39.7207C32.9728 39.7858 32.8959 39.8375 32.8113 39.8728C32.7266 39.908 32.6359 39.9262 32.5443 39.9262H12.9665C12.7837 39.9227 12.6096 39.8472 12.4816 39.716C12.3536 39.5847 12.2819 39.4082 12.2819 39.2243C12.2819 39.0404 12.3536 38.8639 12.4816 38.7326C12.6096 38.6014 12.7837 38.5259 12.9665 38.5224H32.5446C32.7294 38.5224 32.9066 38.5962 33.0374 38.7275C33.1682 38.8588 33.2418 39.037 33.2422 39.2229L33.2419 39.2244ZM10.7849 45.1285C10.7849 45.3146 10.7114 45.4931 10.5806 45.6248C10.4497 45.7564 10.2723 45.8303 10.0873 45.8303H6.4552C6.27244 45.8268 6.09834 45.7513 5.97033 45.6201C5.84231 45.4888 5.77059 45.3123 5.77059 45.1284C5.77059 44.9445 5.84231 44.768 5.97033 44.6367C6.09834 44.5055 6.27244 44.43 6.4552 44.4265H10.0873C10.2721 44.4265 10.4493 44.5003 10.5801 44.6316C10.7109 44.7629 10.7846 44.9411 10.7849 45.127V45.1285ZM33.2419 45.1285C33.2419 45.3146 33.1684 45.4931 33.0376 45.6248C32.9068 45.7564 32.7293 45.8303 32.5443 45.8303H12.9665C12.7837 45.8268 12.6096 45.7513 12.4816 45.6201C12.3536 45.4888 12.2819 45.3123 12.2819 45.1284C12.2819 44.9445 12.3536 44.768 12.4816 44.6367C12.6096 44.5055 12.7837 44.43 12.9665 44.4265H32.5446C32.7294 44.4265 32.9066 44.5003 33.0374 44.6316C33.1682 44.7629 33.2418 44.9411 33.2422 45.127L33.2419 45.1285Z" fill="#2465B1"/>
</g>
<defs>
<clipPath id="clip0_40062_956">
<rect width="39" height="52" fill="white"/>
</clipPath>
</defs>
</svg>
