<svg width="18" height="21" viewBox="0 0 18 21" fill="none" xmlns="http://www.w3.org/2000/svg">
<path d="M18.0078 8.20312C16.25 8.24219 14.6094 7.69531 13.2031 6.67969V13.6719C13.2031 16.3281 11.5625 18.6719 9.0625 19.6094C6.60156 20.5469 3.78906 19.8438 2.07031 17.8516C0.3125 15.8203 0 12.9688 1.25 10.625C2.5 8.32031 5.07812 7.03125 7.73438 7.38281V10.8984C6.52344 10.5078 5.19531 10.9375 4.45312 11.9531C3.75 13.0078 3.75 14.375 4.49219 15.3906C5.23438 16.4062 6.5625 16.8359 7.73438 16.4453C8.94531 16.0547 9.76562 14.9219 9.76562 13.6719V0H13.2031C13.2031 0.3125 13.2031 0.585938 13.2812 0.898438C13.5156 2.1875 14.2578 3.32031 15.3906 4.02344C16.1328 4.53125 17.0703 4.80469 18.0078 4.80469V8.20312Z" fill="white"/>
</svg>
