<svg width="65" height="49" viewBox="0 0 65 49" fill="none" xmlns="http://www.w3.org/2000/svg">
<path opacity="0.5" d="M65 0C60.5089 4.89388 56.6853 9.97129 53.5294 15.2322C50.4949 20.4931 48.6134 25.1423 47.8852 29.1798L46.0644 27.8951C46.5499 27.5281 47.1569 27.2834 47.8852 27.161C48.6134 26.9164 49.4024 26.794 50.2521 26.794C53.7722 26.794 56.5033 27.834 58.4454 29.9139C60.3875 31.8714 61.3585 34.3795 61.3585 37.4382C61.3585 40.8639 60.2661 43.6779 58.0812 45.8801C55.8964 47.96 52.9225 49 49.1597 49C45.5182 49 42.4837 47.7765 40.056 45.3296C37.6284 42.7603 36.4146 39.2122 36.4146 34.6854C36.4146 31.6267 36.9001 28.4457 37.8711 25.1423C38.8422 21.839 40.1167 18.5968 41.6947 15.4157C43.2726 12.2347 44.972 9.35955 46.7927 6.79026C48.7348 4.09862 50.6162 1.8352 52.437 0H65ZM28.4034 0C23.9122 4.89388 20.0887 9.97129 16.9328 15.2322C13.8982 20.4931 12.0168 25.1423 11.2885 29.1798L9.46779 27.8951C10.0747 27.5281 10.6816 27.2834 11.2885 27.161C12.0168 26.9164 12.8665 26.794 13.8375 26.794C17.3576 26.794 20.0887 27.834 22.0308 29.9139C23.9729 31.8714 24.944 34.3795 24.944 37.4382C24.944 40.8639 23.7908 43.6779 21.4846 45.8801C19.2997 47.96 16.3866 49 12.7451 49C9.10364 49 6.06909 47.7765 3.64146 45.3296C1.21382 42.7603 0 39.2122 0 34.6854C0 31.6267 0.424837 28.4457 1.27451 25.1423C2.24556 21.839 3.52007 18.5968 5.09804 15.4157C6.676 12.2347 8.37535 9.35955 10.1961 6.79026C12.1382 4.09862 14.0803 1.8352 16.0224 0H28.4034Z" fill="url(#paint0_linear_38062_16382)"/>
<defs>
<linearGradient id="paint0_linear_38062_16382" x1="32.5" y1="0" x2="32.5" y2="49" gradientUnits="userSpaceOnUse">
<stop stop-color="white" stop-opacity="0"/>
<stop offset="1" stop-color="white"/>
</linearGradient>
</defs>
</svg>
