<svg width="28" height="10" viewBox="0 0 28 10" fill="none" xmlns="http://www.w3.org/2000/svg">
<path d="M8.06348 0H0.21421V1.68309H5.66124L0.290645 8.33895C0.12236 8.58375 0 8.81329 0 9.33348V9.76191H7.40551C7.77275 9.76191 8.07881 9.45592 8.07881 9.08868V8.18592H2.35631L7.40551 1.85138C7.48203 1.75961 7.61972 1.59132 7.68098 1.51481L7.71157 1.46888C8.0023 1.04046 8.06348 0.673222 8.06348 0.229546V0Z" fill="#F6F6F6"/>
<path d="M18.0544 9.76191H19.1714V0H17.4883V9.19579C17.4883 9.50185 17.7331 9.76191 18.0544 9.76191Z" fill="#F6F6F6"/>
<path d="M12.3018 2.17334C10.1902 2.17334 8.47656 3.88702 8.47656 5.99854C8.47656 8.11005 10.1902 9.82373 12.3018 9.82373C14.4133 9.82373 16.127 8.11005 16.127 5.99854C16.1423 3.88702 14.4286 2.17334 12.3018 2.17334ZM12.3018 8.24774C11.0624 8.24774 10.0526 7.23787 10.0526 5.99854C10.0526 4.7592 11.0624 3.74933 12.3018 3.74933C13.5411 3.74933 14.551 4.7592 14.551 5.99854C14.551 7.23787 13.5564 8.24774 12.3018 8.24774Z" fill="#F6F6F6"/>
<path d="M24.1439 2.11182C22.017 2.11182 20.2881 3.84084 20.2881 5.9676C20.2881 8.09445 22.017 9.82347 24.1439 9.82347C26.2706 9.82347 27.9997 8.09445 27.9997 5.9676C27.9997 3.84084 26.2706 2.11182 24.1439 2.11182ZM24.1439 8.24748C22.8892 8.24748 21.8793 7.23761 21.8793 5.98294C21.8793 4.72827 22.8892 3.7184 24.1439 3.7184C25.3985 3.7184 26.4084 4.72827 26.4084 5.98294C26.4084 7.23761 25.3985 8.24748 24.1439 8.24748Z" fill="#F6F6F6"/>
<path d="M15.2416 9.76172H16.1443V2.38672H14.5684V9.10384C14.5684 9.45574 14.8743 9.76172 15.2416 9.76172Z" fill="#F6F6F6"/>
</svg>
